<svg width="32" height="32" viewBox="0 0 32 32" fill="none" xmlns="http://www.w3.org/2000/svg">
<path d="M24.1539 13.1715C25.781 12.8392 27 11.5207 27 9.94381C27 9.69593 26.9682 9.45333 26.9099 9.22127C26.8463 8.96812 26.7509 8.72552 26.6237 8.49873C26.6237 8.49346 26.6184 8.49346 26.6184 8.48818C26.5813 8.41962 26.5442 8.35633 26.5018 8.29305C26.4965 8.28777 26.4965 8.2825 26.4912 8.27722C26.4488 8.21394 26.4064 8.15065 26.3587 8.08736C26.311 8.02407 26.2633 7.96606 26.2103 7.90804C26.205 7.90277 26.205 7.90277 26.1997 7.8975C26.152 7.83948 26.099 7.78674 26.046 7.734C26.0354 7.72345 26.0301 7.71818 26.0195 7.70763C25.9665 7.65489 25.9135 7.60742 25.8605 7.55996C25.8499 7.55468 25.8446 7.54414 25.834 7.53886C25.7757 7.48612 25.7174 7.43866 25.6591 7.39119C25.4153 7.20133 25.1238 7.07475 24.9012 6.86379C24.5514 6.53153 24.35 6.09906 24.35 5.64022C24.35 4.95987 24.7687 4.37445 25.3888 4.07384C25.2192 4.03164 25.039 4.00527 24.8535 4.00527C23.7617 4 22.9138 4.80692 22.8714 5.80371C22.829 6.76886 23.5232 7.52304 23.5232 8.03462C23.5232 8.4038 23.4384 8.74661 23.2901 9.06305C23.1364 9.39531 22.9032 9.69066 22.6223 9.93326C22.2089 10.2866 21.6789 10.5345 21.0853 10.6189C20.9422 10.64 20.7938 10.6505 20.6401 10.6505C20.3327 10.6505 20.0359 10.6083 19.7603 10.524C18.6526 10.1706 17.4601 9.98073 16.2199 9.98073C16.1457 9.98073 16.0715 9.98073 15.9973 9.98073C15.9232 9.98073 15.849 9.98073 15.7748 9.98073C14.5346 9.98073 13.3421 10.1706 12.2344 10.524C12.2344 10.524 12.2344 10.524 12.2344 10.5187C11.9588 10.5978 11.662 10.6453 11.3546 10.6453C11.2009 10.6453 11.0525 10.6347 10.9094 10.6136C10.3211 10.5292 9.79113 10.2866 9.37244 9.92799C9.09684 9.69066 8.86895 9.39531 8.70995 9.06305C8.56155 8.74661 8.47675 8.39853 8.47675 8.03462C8.47675 7.52304 9.17104 6.77413 9.12864 5.80371C9.08624 4.80692 8.24356 4 7.14647 4C6.96097 4 6.78078 4.0211 6.61118 4.06856C7.22597 4.36391 7.64466 4.9546 7.64466 5.63494C7.64466 6.09378 7.43797 6.52625 7.09347 6.85851C6.86557 7.07475 6.57938 7.19605 6.33558 7.38592C6.26138 7.44393 6.19248 7.50194 6.12358 7.56523C6.12358 7.56523 6.12358 7.56523 6.11828 7.57051C6.04939 7.63379 5.98579 7.69708 5.92219 7.76564C5.51409 8.18229 5.2226 8.67805 5.0901 9.22127C5.0318 9.45333 5 9.69593 5 9.94381C5 11.5207 6.21898 12.8445 7.84606 13.1715C7.84076 13.1768 7.83016 13.1873 7.82486 13.1926C6.71188 14.3107 5.87979 15.6661 5.43989 17.1692C6.30378 16.858 7.24717 16.6893 8.23296 16.6893C8.31775 16.6893 8.40785 16.6893 8.49265 16.6945C8.82655 16.7051 9.14984 16.7315 9.47314 16.7842C9.18164 17.2536 8.83715 17.6861 8.43435 18.0816C8.50325 19.1206 8.82655 20.0963 9.35124 20.9612C9.40954 21.0614 9.47844 21.1616 9.54204 21.2566C9.54734 21.2671 9.55794 21.2777 9.56324 21.2882C9.64804 21.4095 9.73284 21.5308 9.82823 21.6468C9.82823 21.6468 9.82823 21.6468 9.82823 21.6521C10.3582 22.3641 11.45 23.8408 11.8846 24.4262C11.7362 24.595 11.5825 24.7638 11.4182 24.922C11.6355 25.6076 12.0383 26.2247 12.5736 26.7257C12.6107 26.6888 12.6478 26.6572 12.6849 26.6202C13.0983 27.0422 13.5859 27.4008 14.1265 27.6803C14.6989 27.9757 17.3011 27.9757 17.8735 27.6803C18.4141 27.3955 18.9017 27.0369 19.3151 26.6202C19.3522 26.6519 19.3946 26.6888 19.4264 26.7257C19.9564 26.2247 20.3592 25.6076 20.5818 24.922C20.4175 24.7638 20.2638 24.6003 20.1154 24.4262C20.55 23.8408 21.6471 22.3641 22.1771 21.6521C22.1771 21.6521 22.1771 21.6521 22.1771 21.6468C22.3043 21.4728 22.3997 21.3462 22.4421 21.2882C22.4474 21.2777 22.458 21.2671 22.4633 21.2566C22.5322 21.1616 22.5958 21.0614 22.6541 20.9612C23.1788 20.0963 23.502 19.1206 23.5709 18.0816C23.1735 17.6913 22.8237 17.2536 22.5375 16.7842C22.8555 16.7367 23.1841 16.7051 23.5179 16.6945C23.6027 16.6893 23.6875 16.6893 23.7776 16.6893C24.7634 16.6893 25.7068 16.858 26.5707 17.1692C26.1255 15.6714 25.2987 14.316 24.1857 13.1926C24.1698 13.1873 24.1645 13.1821 24.1539 13.1715Z" fill="url(#paint0_linear_4753_1358)"/>
<path d="M13.5594 20.0329C13.5594 20.2175 13.5488 20.4074 13.5382 20.592C13.5329 20.6447 13.5276 20.6975 13.5223 20.7502C13.517 20.8135 13.5064 20.8715 13.5011 20.9348C13.4905 20.9981 13.4799 21.0561 13.4746 21.1194C13.4587 21.2091 13.4428 21.2987 13.4216 21.3884C13.4163 21.4253 13.4057 21.4622 13.4004 21.4939C13.3421 21.747 13.2679 21.9896 13.1831 22.2322C13.1619 22.2902 13.1407 22.3482 13.1195 22.4063C13.1142 22.4221 13.1036 22.4379 13.0983 22.459C13.0824 22.4959 13.0665 22.5328 13.0506 22.5697C13.0453 22.5856 13.0347 22.6014 13.0294 22.6172C13.0082 22.6647 12.987 22.7121 12.9658 22.7596C12.9499 22.7965 12.934 22.8282 12.9181 22.8651C12.9128 22.8809 12.9075 22.8915 12.8969 22.9073C12.8863 22.9231 12.881 22.9389 12.8704 22.9548C12.8333 23.0339 12.7909 23.1077 12.7538 23.1815C12.722 23.2395 12.6902 23.2923 12.6584 23.3503C12.6531 23.3609 12.6478 23.3714 12.6372 23.3819C12.6107 23.4241 12.5842 23.4663 12.5577 23.5138C12.5471 23.5296 12.5418 23.5402 12.5312 23.556C12.4994 23.6087 12.4623 23.6615 12.4305 23.7142C12.3298 23.8672 12.2238 24.0148 12.1072 24.1572C12.0383 24.2469 11.9641 24.3313 11.8899 24.4157C11.4553 23.8302 10.3582 22.3535 9.83353 21.6415C9.83353 21.6415 9.83353 21.6415 9.82823 21.6362C9.70103 21.4622 9.61093 21.3356 9.56323 21.2776C9.55793 21.2671 9.54733 21.2565 9.54203 21.246C9.47313 21.151 9.40953 21.0508 9.35123 20.9506C8.82654 20.0857 8.50324 19.11 8.43435 18.071C8.83184 17.6807 9.18164 17.243 9.47313 16.7736C9.71163 16.3886 9.90773 15.9825 10.0614 15.5553C10.2045 15.1545 10.3105 14.7378 10.3741 14.3106C10.4377 14.3528 10.5013 14.395 10.5596 14.4425C10.6126 14.4794 10.6603 14.5163 10.7133 14.5533C10.7557 14.5849 10.7928 14.6165 10.8352 14.6482C10.8564 14.6587 10.8723 14.6746 10.8882 14.6904C10.9253 14.7167 10.9571 14.7431 10.9889 14.7748C11.0207 14.8011 11.0578 14.8275 11.0896 14.8591C11.1002 14.8697 11.1108 14.8802 11.1267 14.8855L11.1373 14.8961C11.1691 14.9224 11.2009 14.9488 11.2327 14.9752C11.2433 14.9857 11.2486 14.991 11.2592 15.0015C11.2963 15.0332 11.3281 15.0648 11.3652 15.0965C11.397 15.1281 11.4341 15.1598 11.4659 15.1914C11.5136 15.2336 11.556 15.2811 11.6037 15.3285C11.7362 15.4604 11.8581 15.5975 11.9747 15.7399C12.6531 16.5468 13.146 17.4909 13.3898 18.5193C13.4693 18.8463 13.5223 19.1786 13.5488 19.5161C13.5594 19.669 13.57 19.822 13.57 19.9802V19.9855C13.5594 20.0013 13.5594 20.0171 13.5594 20.0329Z" fill="url(#paint1_linear_4753_1358)"/>
<path d="M23.571 18.0763C23.5021 19.1153 23.1788 20.091 22.6541 20.9559C22.5958 21.0561 22.5269 21.1563 22.4633 21.2513C22.458 21.2618 22.4474 21.2724 22.4421 21.2829C22.3997 21.3409 22.3043 21.4675 22.1771 21.6416V21.6468C21.6471 22.3641 20.55 23.8408 20.1154 24.421C20.0412 24.3366 19.967 24.2469 19.8981 24.1625C19.7868 24.0201 19.6755 23.8725 19.5748 23.7195C19.5377 23.6668 19.5059 23.614 19.4741 23.5613C19.4635 23.5455 19.4529 23.5349 19.4476 23.5191C19.4211 23.4769 19.3946 23.4347 19.3681 23.3873C19.3628 23.3767 19.3575 23.3662 19.3469 23.3556C19.3151 23.3029 19.2833 23.2449 19.2515 23.1868C19.2091 23.113 19.172 23.0339 19.1349 22.9601C19.1243 22.9442 19.119 22.9284 19.1084 22.9126C19.1031 22.902 19.0978 22.8862 19.0872 22.8757C19.0713 22.8388 19.0554 22.8071 19.0395 22.7702C19.0342 22.7596 19.0289 22.7438 19.0236 22.7333C19.0077 22.6964 18.9918 22.6594 18.9759 22.6278C18.9706 22.612 18.9653 22.5961 18.9547 22.5803C18.9388 22.5434 18.9229 22.5065 18.907 22.4696C18.9017 22.4538 18.8911 22.4327 18.8858 22.4168C18.8646 22.3588 18.8434 22.3008 18.8222 22.2428C18.7374 22.0055 18.6632 21.7576 18.6049 21.5044C18.5943 21.4675 18.589 21.4306 18.5784 21.3989C18.5572 21.3093 18.5413 21.2196 18.5254 21.13C18.5148 21.0667 18.5042 21.0087 18.4989 20.9454C18.4883 20.8821 18.483 20.8188 18.4777 20.7608C18.4724 20.7081 18.4671 20.6553 18.4618 20.6026C18.4459 20.418 18.4353 20.2334 18.4353 20.0435C18.4353 20.0277 18.4353 20.0119 18.4353 19.9961C18.4353 19.9908 18.4353 19.9908 18.4353 19.9908C18.4353 19.8326 18.4459 19.6796 18.4565 19.5267C18.483 19.1891 18.536 18.8569 18.6155 18.5299C18.8593 17.5015 19.3522 16.5574 20.0306 15.7505C20.1472 15.6081 20.2744 15.471 20.4016 15.3391C20.444 15.2916 20.4917 15.2495 20.5394 15.2073C20.5712 15.1756 20.6083 15.144 20.6401 15.1123C20.6719 15.0807 20.709 15.049 20.7408 15.0174C20.7514 15.0068 20.7567 15.0016 20.7673 14.991C20.7991 14.9647 20.8309 14.9383 20.8627 14.9119C20.868 14.9066 20.868 14.9066 20.8733 14.9014C20.8839 14.8908 20.8945 14.8803 20.9104 14.875C20.9422 14.8434 20.9793 14.817 21.0111 14.7906C21.0429 14.7642 21.08 14.7326 21.1118 14.7062C21.1277 14.6904 21.1489 14.6799 21.1648 14.664C21.2019 14.6324 21.2443 14.6007 21.2867 14.5744C21.3344 14.5375 21.3874 14.5005 21.4404 14.4636C21.504 14.4214 21.5623 14.374 21.6259 14.3318C21.6895 14.759 21.7902 15.1756 21.9386 15.5764C22.0923 16.0036 22.2884 16.4097 22.5269 16.7947C22.8237 17.2483 23.1735 17.6808 23.571 18.0763Z" fill="url(#paint2_linear_4753_1358)"/>
<path d="M9.82293 21.6415C9.72753 21.5255 9.64273 21.4042 9.55793 21.2829C9.60563 21.3409 9.70103 21.4675 9.82293 21.6415Z" fill="url(#paint3_linear_4753_1358)"/>
<path d="M12.2397 10.524C11.662 10.7138 11.1055 10.9406 10.5755 11.2043C10.4165 11.2834 10.2628 11.3678 10.1091 11.4522C10.019 11.5049 9.93423 11.5524 9.84413 11.6051C9.10744 12.0534 8.43435 12.5808 7.84076 13.1715C6.21898 12.8445 5 11.5207 5 9.94381C5 9.69593 5.0318 9.45333 5.0901 9.22127C5.265 8.50401 5.72609 7.86585 6.33558 7.38592C6.57938 7.19605 6.87087 7.06948 7.09347 6.85851C7.44327 6.52625 7.64466 6.09378 7.64466 5.63494C7.64466 4.9546 7.22597 4.36918 6.60588 4.06856C6.78078 4.0211 6.96097 4 7.14647 4C8.24356 4 9.08624 4.80692 9.13394 5.80371C9.17634 6.76886 8.48205 7.52304 8.48205 8.03462C8.48205 8.4038 8.56685 8.74661 8.71525 9.06305C8.86895 9.39531 9.10214 9.69066 9.38304 9.93326C9.79643 10.2866 10.3264 10.5345 10.92 10.6189C11.0631 10.64 11.2115 10.6505 11.3652 10.6505C11.6673 10.6453 11.9641 10.6031 12.2397 10.524Z" fill="url(#paint4_linear_4753_1358)"/>
<path d="M10.3688 14.316C10.3052 14.7432 10.2045 15.1598 10.0561 15.5607C9.90244 15.9879 9.70635 16.394 9.46785 16.779C9.14985 16.7315 8.82126 16.6999 8.48736 16.6893C8.40256 16.684 8.31777 16.684 8.22767 16.684C7.24188 16.684 6.29849 16.8528 5.4346 17.164C5.8798 15.6661 6.70659 14.3107 7.81957 13.1874C8.46616 13.3456 9.07565 13.5829 9.64275 13.8783C9.72225 13.9205 9.80174 13.9626 9.87594 14.0048C10.0455 14.1103 10.2098 14.2105 10.3688 14.316Z" fill="url(#paint5_linear_4753_1358)"/>
<path d="M19.3151 26.6097C18.9017 27.0316 18.4141 27.3903 17.8735 27.6698C17.3011 27.9651 14.6989 27.9651 14.1265 27.6698C13.5859 27.385 13.0983 27.0263 12.6849 26.6097C12.8015 26.5095 12.9234 26.4146 13.0506 26.3196C13.7449 25.8239 14.5982 25.4969 15.531 25.4125C15.6847 25.3967 15.8437 25.3914 16.0027 25.3914C16.1617 25.3914 16.3207 25.3967 16.4744 25.4125C17.4071 25.4969 18.2604 25.8239 18.9547 26.3196C19.0819 26.4146 19.2038 26.5095 19.3151 26.6097Z" fill="url(#paint6_linear_4753_1358)"/>
<path d="M20.5817 24.9115C20.3644 25.5971 19.9616 26.2142 19.4264 26.7152C19.3893 26.6783 19.3522 26.6467 19.3151 26.6098C19.1985 26.5096 19.0766 26.4146 18.9547 26.325C18.2604 25.8239 17.4071 25.4969 16.4743 25.4178C16.3206 25.4073 16.1616 25.3967 16.0026 25.3967C15.8436 25.3967 15.6846 25.4073 15.5309 25.4178C14.5981 25.5022 13.7448 25.8292 13.0505 26.325C12.9233 26.4146 12.8014 26.5096 12.6901 26.6098C12.653 26.6414 12.6106 26.6783 12.5788 26.7152C12.0436 26.2142 11.6461 25.5971 11.4235 24.9115C11.5878 24.7533 11.7468 24.5898 11.8899 24.4158C11.9641 24.3314 12.0383 24.2417 12.1072 24.1573C12.2238 24.0149 12.3298 23.8673 12.4305 23.7143C12.4675 23.6616 12.4993 23.6088 12.5311 23.5561C12.5417 23.5403 12.5523 23.5297 12.5576 23.5139C12.5841 23.4717 12.6106 23.4295 12.6371 23.3821C12.6424 23.3715 12.6477 23.361 12.6583 23.3504C12.6901 23.2977 12.7219 23.2397 12.7537 23.1817C12.7961 23.1078 12.8332 23.0287 12.8703 22.9549C12.8809 22.939 12.8862 22.9232 12.8968 22.9074C12.9021 22.8916 12.9074 22.881 12.918 22.8652C12.9339 22.8283 12.9498 22.7966 12.9657 22.7597C12.9869 22.7123 13.0081 22.6648 13.0293 22.6173C13.8773 23.3451 14.9002 23.7723 16.0026 23.7723C17.1103 23.7723 18.1332 23.3451 18.9812 22.6173C18.9918 22.6437 19.0024 22.6648 19.013 22.6912C19.0183 22.7017 19.0236 22.7123 19.0289 22.7281C19.0342 22.7386 19.0395 22.7545 19.0448 22.765C19.0607 22.8019 19.0766 22.8336 19.0925 22.8705C19.0978 22.881 19.1031 22.8969 19.1137 22.9074C19.1243 22.9232 19.1296 22.939 19.1402 22.9549C19.1773 23.034 19.2197 23.1078 19.2568 23.1817C19.2886 23.2397 19.3204 23.2924 19.3522 23.3504C19.3575 23.361 19.3628 23.3715 19.3734 23.3821C19.3999 23.4243 19.4264 23.4664 19.4529 23.5139C19.4635 23.5297 19.4688 23.5403 19.4794 23.5561C19.5112 23.6088 19.5483 23.6616 19.5801 23.7143C19.6808 23.8673 19.7868 24.0149 19.9033 24.1573C19.9722 24.247 20.0464 24.3314 20.1206 24.4158C20.2637 24.5898 20.4174 24.7533 20.5817 24.9115Z" fill="url(#paint7_linear_4753_1358)"/>
<path d="M27 9.94381C27 11.5207 25.781 12.8445 24.1539 13.1715C23.5604 12.5755 22.8873 12.0481 22.1506 11.6051C22.0658 11.5524 21.9757 11.4996 21.8856 11.4522C21.7319 11.3678 21.5782 11.2834 21.4192 11.2043C20.8945 10.9353 20.338 10.7085 19.7603 10.524V10.5187C20.0359 10.5978 20.3327 10.6453 20.6401 10.6453C20.7938 10.6453 20.9369 10.6347 21.0853 10.6136C21.6736 10.5292 22.2036 10.2866 22.6223 9.92799C22.9085 9.68539 23.1364 9.39004 23.2901 9.05778C23.4385 8.74134 23.5233 8.39325 23.5233 8.02935C23.5233 7.51777 22.829 6.76886 22.8714 5.79844C22.9138 4.80692 23.7618 4 24.8588 4C25.0443 4 25.2245 4.0211 25.3941 4.06856C24.7793 4.36918 24.3553 4.9546 24.3553 5.63494C24.3553 6.09378 24.5567 6.52625 24.9065 6.85851C25.1291 7.07475 25.4206 7.19605 25.6644 7.38592C26.2739 7.86585 26.735 8.50401 26.9099 9.22127C26.9735 9.45333 27 9.69593 27 9.94381Z" fill="url(#paint8_linear_4753_1358)"/>
<path d="M26.5654 17.1691C25.7015 16.858 24.7581 16.6892 23.7723 16.6892C23.6875 16.6892 23.5974 16.6892 23.5126 16.6945C23.1787 16.705 22.8554 16.7314 22.5321 16.7841C22.2936 16.3991 22.0975 15.993 21.9438 15.5658C21.8007 15.165 21.6947 14.7484 21.6311 14.3212C21.7901 14.2157 21.9491 14.1155 22.1187 14.0206C22.1982 13.9731 22.2724 13.9309 22.3519 13.894C22.919 13.5986 23.5285 13.3613 24.1751 13.2031C25.2881 14.3159 26.1202 15.6713 26.5654 17.1691Z" fill="url(#paint9_linear_4753_1358)"/>
<path d="M24.1751 13.1926C23.5285 13.3508 22.9191 13.5881 22.352 13.8835C22.2725 13.9257 22.193 13.9679 22.1188 14.01C21.9545 14.105 21.7902 14.2052 21.6312 14.3107C21.5676 14.3529 21.504 14.3951 21.4404 14.4425C21.3874 14.4794 21.3397 14.5164 21.2867 14.5533C21.2443 14.5849 21.2072 14.6113 21.1648 14.6429C21.1489 14.6588 21.1277 14.6693 21.1118 14.6851C21.0747 14.7115 21.0429 14.7379 21.0111 14.7695C20.9793 14.7959 20.9422 14.8222 20.9104 14.8539C20.8998 14.8644 20.8892 14.875 20.8733 14.8855C20.868 14.8908 20.868 14.8908 20.8627 14.8961C20.8309 14.9225 20.7991 14.9488 20.7673 14.9805C20.7567 14.9857 20.7514 14.9963 20.7408 15.0016C20.7037 15.0332 20.6719 15.0649 20.6401 15.0965C20.603 15.1281 20.5712 15.1598 20.5394 15.1914C20.5182 15.2125 20.4917 15.2336 20.4705 15.26C20.4493 15.2811 20.4228 15.3075 20.4016 15.3286C20.2903 15.4393 20.1896 15.5553 20.0889 15.6714C20.0677 15.6925 20.0518 15.7188 20.0306 15.7399C19.9511 15.8349 19.8716 15.9351 19.7974 16.0353C19.7497 16.0986 19.7073 16.1566 19.6596 16.2199C19.5695 16.3464 19.4847 16.473 19.4052 16.6049C19.2833 16.8 19.1773 17.0057 19.0766 17.2114C19.0607 17.2483 19.0448 17.2799 19.0289 17.3169C18.9971 17.3854 18.9653 17.4593 18.9335 17.5278C18.801 17.8495 18.695 18.1765 18.6102 18.5193C18.5943 18.5773 18.5837 18.6354 18.5678 18.6986C18.5413 18.8199 18.5201 18.936 18.5042 19.0573C18.483 19.2102 18.4618 19.3632 18.4512 19.5161C18.4406 19.6691 18.43 19.822 18.43 19.9802H18.4247C18.4247 19.9802 18.43 19.9802 18.43 19.9855C18.43 20.0013 18.43 20.0172 18.43 20.033C18.43 20.2228 18.4353 20.4074 18.4512 20.592C18.4512 20.6184 18.4565 20.6448 18.4565 20.6711C18.4565 20.6975 18.4618 20.7239 18.4618 20.7502C18.4671 20.7819 18.4671 20.8135 18.4724 20.8399C18.4777 20.8715 18.4777 20.9032 18.483 20.9348C18.4883 20.9823 18.4936 21.0245 18.5042 21.072C18.5042 21.0878 18.5095 21.1036 18.5095 21.1194C18.5148 21.1669 18.5254 21.2091 18.536 21.2565C18.5466 21.304 18.5519 21.3462 18.5625 21.3937C18.5678 21.4306 18.5784 21.4622 18.589 21.4991C18.6473 21.747 18.7215 21.9949 18.8063 22.2375C18.8275 22.2955 18.8487 22.3535 18.8699 22.4116C18.8752 22.4274 18.8858 22.4485 18.8911 22.4643C18.907 22.5012 18.9229 22.5381 18.9388 22.575C18.9441 22.5909 18.9547 22.6067 18.96 22.6225C18.112 23.3503 17.0891 23.7775 15.9814 23.7775C14.8738 23.7775 13.8509 23.3503 13.0029 22.6225C13.0082 22.6067 13.0135 22.5909 13.0241 22.575C13.04 22.5381 13.0559 22.5012 13.0718 22.4643C13.0771 22.4485 13.0877 22.4274 13.093 22.4116C13.1142 22.3535 13.1354 22.2955 13.1566 22.2375C13.2414 22.0002 13.3156 21.7523 13.3739 21.4991C13.3845 21.4622 13.3898 21.4306 13.3951 21.3937C13.4163 21.304 13.4322 21.2144 13.4481 21.1247C13.4587 21.0614 13.4693 21.0034 13.4746 20.9401C13.4852 20.8768 13.4905 20.8188 13.4958 20.7555C13.5011 20.7028 13.5064 20.65 13.5117 20.5973C13.5276 20.4127 13.5329 20.2281 13.5329 20.0382C13.5329 20.0224 13.5329 20.0066 13.5329 19.9908C13.5329 19.9908 13.5382 19.9908 13.5382 19.9855H13.5329C13.5329 19.8273 13.5276 19.6743 13.5117 19.5214C13.4852 19.1839 13.4322 18.8463 13.3527 18.5246C13.1089 17.4962 12.616 16.5521 11.9376 15.7452C11.821 15.6028 11.6938 15.4657 11.5666 15.3338C11.5242 15.2864 11.4765 15.2442 11.4288 15.1967C11.397 15.1651 11.3599 15.1334 11.3281 15.1018C11.2963 15.0701 11.2592 15.0385 11.2274 15.0068C11.2168 15.0016 11.2115 14.991 11.2009 14.9857C11.1691 14.9594 11.1373 14.933 11.1055 14.9014C11.1002 14.8961 11.1002 14.8961 11.0949 14.8908C11.0843 14.8803 11.0737 14.8697 11.0578 14.8592C11.0207 14.8275 10.9889 14.8012 10.9571 14.7748C10.9253 14.7484 10.8882 14.7168 10.8564 14.6904C10.8405 14.6746 10.8193 14.664 10.8034 14.6482C10.7663 14.6166 10.7239 14.5849 10.6815 14.5585C10.6338 14.5216 10.5808 14.4847 10.5278 14.4478C10.4642 14.4056 10.4059 14.3581 10.337 14.3159C10.178 14.2105 10.019 14.1103 9.84943 14.0153C9.76993 13.9679 9.69573 13.9257 9.61624 13.8887C9.04914 13.5934 8.43965 13.3561 7.79306 13.1979C7.79836 13.1926 7.80896 13.182 7.81426 13.1768C8.40785 12.5808 9.08094 12.0534 9.81763 11.6104C9.90243 11.5576 9.99253 11.5049 10.0826 11.4574C10.2363 11.373 10.39 11.2887 10.549 11.2095C11.0737 10.9406 11.6302 10.7138 12.2079 10.5292C13.3156 10.1758 14.5081 9.98598 15.7483 9.98598C15.8225 9.98598 15.8966 9.98598 15.9708 9.98598C16.045 9.98598 16.1192 9.98598 16.1934 9.98598C17.4336 9.98598 18.6261 10.1758 19.7338 10.5292C20.3115 10.7138 20.868 10.9406 21.3927 11.2095C21.5517 11.2887 21.7054 11.373 21.8591 11.4574C21.9492 11.5102 22.034 11.5576 22.1241 11.6104C22.8608 12.0587 23.5338 12.5861 24.1274 13.1768C24.1645 13.182 24.1698 13.1873 24.1751 13.1926Z" fill="url(#paint10_linear_4753_1358)"/>
<path d="M18.483 20.7503C18.4883 20.7819 18.4883 20.8135 18.4936 20.8399C18.4883 20.8135 18.483 20.7819 18.483 20.7503Z" fill="url(#paint11_linear_4753_1358)"/>
<path d="M18.536 21.1194C18.5307 21.1036 18.5307 21.0877 18.5307 21.0719C18.5254 21.0877 18.5307 21.1036 18.536 21.1194Z" fill="url(#paint12_linear_4753_1358)"/>
<path d="M18.5837 21.3884C18.589 21.4254 18.5996 21.457 18.6049 21.4939C18.5996 21.4623 18.5943 21.4254 18.5837 21.3884C18.5731 21.341 18.5625 21.2988 18.5572 21.2513C18.5678 21.2988 18.5731 21.3462 18.5837 21.3884Z" fill="url(#paint13_linear_4753_1358)"/>
<path d="M19.0819 17.2167C19.1826 17.011 19.2886 16.8053 19.4105 16.6102C19.2939 16.8053 19.1826 17.0058 19.0819 17.2167Z" fill="url(#paint14_linear_4753_1358)"/>
<path d="M19.4105 16.6049C19.49 16.473 19.5748 16.3465 19.6649 16.2199C19.5801 16.3465 19.4953 16.473 19.4105 16.6049Z" fill="url(#paint15_linear_4753_1358)"/>
<path d="M19.8027 16.0353C19.8769 15.935 19.9564 15.8401 20.0359 15.7399C19.9564 15.8348 19.8769 15.935 19.8027 16.0353Z" fill="url(#paint16_linear_4753_1358)"/>
<path d="M20.407 15.3286C20.4282 15.3075 20.4547 15.2811 20.4759 15.26C20.4547 15.2811 20.4335 15.3075 20.407 15.3286Z" fill="url(#paint17_linear_4753_1358)"/>
<path d="M20.8829 14.8855C20.8781 14.8903 20.8781 14.8903 20.8732 14.8951C20.8732 14.8903 20.8781 14.8903 20.8829 14.8855Z" fill="url(#paint18_linear_4753_1358)"/>
<path d="M7.55989 9.90689C8.91137 10.6347 10.3636 10.8035 11.8104 10.6769C11.9535 10.6242 12.0966 10.5767 12.2397 10.5292C12.2397 10.5292 12.2397 10.5292 12.2397 10.524C11.9641 10.6031 11.6673 10.6505 11.3599 10.6505C11.2062 10.6505 11.0578 10.64 10.9147 10.6189C10.3265 10.5345 9.79646 10.2919 9.37777 9.93326C9.09687 9.69066 8.86897 9.39531 8.70998 9.06305C8.56158 8.74661 8.47678 8.39853 8.47678 8.03462C8.47678 7.52304 9.17107 6.77413 9.12867 5.80371C9.08627 4.80692 8.24358 4 7.1465 4C6.961 4 6.7808 4.0211 6.61121 4.06856C7.226 4.36391 7.64469 4.9546 7.64469 5.63494C7.64469 6.09378 7.43799 6.52625 7.0935 6.85851C6.8656 7.07475 6.57941 7.19605 6.33561 7.38592C6.03881 7.61797 5.77912 7.88695 5.56712 8.18757C6.08121 8.87319 6.7702 9.46388 7.55989 9.90689Z" fill="url(#paint19_linear_4753_1358)"/>
<path d="M25.4206 10.2972C25.993 10.0546 26.5124 9.53771 26.8251 8.9312C26.6078 8.32996 26.1944 7.79729 25.6697 7.38592C25.4259 7.19605 25.1344 7.06948 24.9118 6.85852C24.562 6.52625 24.3606 6.09378 24.3606 5.63494C24.3606 4.9546 24.7793 4.36918 25.3994 4.06856C25.2298 4.02637 25.0496 4 24.8641 4C23.7618 4 22.9138 4.80692 22.8714 5.80371C22.829 6.76886 23.5233 7.52304 23.5233 8.03462C23.5233 8.4038 23.4385 8.74661 23.2901 9.06305C23.1364 9.39532 22.9032 9.69066 22.6223 9.93326C22.2089 10.2866 21.6789 10.5345 21.0853 10.6189C20.9422 10.64 20.7938 10.6505 20.6401 10.6505C20.3327 10.6505 20.0359 10.6083 19.7603 10.524C21.6047 11.0672 23.5763 11.1094 25.4206 10.2972Z" fill="url(#paint20_linear_4753_1358)"/>
<defs>
<linearGradient id="paint0_linear_4753_1358" x1="16.001" y1="8.20609" x2="16.001" y2="27.6647" gradientUnits="userSpaceOnUse">
<stop stop-color="#4CED95"/>
<stop offset="0.5" stop-color="#10B190"/>
<stop offset="1" stop-color="#097050"/>
</linearGradient>
<linearGradient id="paint1_linear_4753_1358" x1="3.49451" y1="19.0134" x2="17.3157" y2="19.6577" gradientUnits="userSpaceOnUse">
<stop stop-color="#4CED95"/>
<stop offset="0.5" stop-color="#10B190"/>
<stop offset="1" stop-color="#097050"/>
</linearGradient>
<linearGradient id="paint2_linear_4753_1358" x1="28.5794" y1="19.3658" x2="16.5064" y2="19.3658" gradientUnits="userSpaceOnUse">
<stop stop-color="#4CED95"/>
<stop offset="0.5" stop-color="#10B190"/>
<stop offset="1" stop-color="#097050"/>
</linearGradient>
<linearGradient id="paint3_linear_4753_1358" x1="9.46634" y1="21.542" x2="9.87822" y2="21.3949" gradientUnits="userSpaceOnUse">
<stop stop-color="#4CED95"/>
<stop offset="0.5" stop-color="#10B190"/>
<stop offset="1" stop-color="#097050"/>
</linearGradient>
<linearGradient id="paint4_linear_4753_1358" x1="8.61975" y1="0.298724" x2="8.61975" y2="22.0436" gradientUnits="userSpaceOnUse">
<stop stop-color="#66FF9D"/>
<stop offset="0.4948" stop-color="#4CED95"/>
<stop offset="1" stop-color="#097050"/>
</linearGradient>
<linearGradient id="paint5_linear_4753_1358" x1="1.27036" y1="18.9154" x2="10.9571" y2="13.7049" gradientUnits="userSpaceOnUse">
<stop stop-color="#4CED95"/>
<stop offset="0.5" stop-color="#10B190"/>
<stop offset="1" stop-color="#097050"/>
</linearGradient>
<linearGradient id="paint6_linear_4753_1358" x1="16.0011" y1="30.1336" x2="16.0011" y2="25.6445" gradientUnits="userSpaceOnUse">
<stop stop-color="#4CED95"/>
<stop offset="0.5" stop-color="#10B190"/>
<stop offset="1" stop-color="#097050"/>
</linearGradient>
<linearGradient id="paint7_linear_4753_1358" x1="16.0011" y1="32.1707" x2="16.0011" y2="20.9277" gradientUnits="userSpaceOnUse">
<stop stop-color="#4CED95"/>
<stop offset="0.5" stop-color="#10B190"/>
<stop offset="1" stop-color="#097050"/>
</linearGradient>
<linearGradient id="paint8_linear_4753_1358" x1="23.3823" y1="0.298724" x2="23.3823" y2="22.0436" gradientUnits="userSpaceOnUse">
<stop stop-color="#66FF9D"/>
<stop offset="0.4948" stop-color="#4CED95"/>
<stop offset="1" stop-color="#097050"/>
</linearGradient>
<linearGradient id="paint9_linear_4753_1358" x1="30.8367" y1="19.4155" x2="21.3321" y2="13.733" gradientUnits="userSpaceOnUse">
<stop stop-color="#4CED95"/>
<stop offset="0.5" stop-color="#10B190"/>
<stop offset="1" stop-color="#097050"/>
</linearGradient>
<linearGradient id="paint10_linear_4753_1358" x1="16.001" y1="8.7975" x2="16.001" y2="29.9199" gradientUnits="userSpaceOnUse">
<stop stop-color="#4CED95"/>
<stop offset="0.1889" stop-color="#2DCE92"/>
<stop offset="0.3638" stop-color="#18B991"/>
<stop offset="0.4774" stop-color="#10B190"/>
<stop offset="0.608" stop-color="#0FA685"/>
<stop offset="0.8368" stop-color="#0C8968"/>
<stop offset="1" stop-color="#097050"/>
</linearGradient>
<linearGradient id="paint11_linear_4753_1358" x1="18.474" y1="20.7572" x2="18.4931" y2="20.7572" gradientUnits="userSpaceOnUse">
<stop stop-color="#4CED95"/>
<stop offset="0.5" stop-color="#10B190"/>
<stop offset="1" stop-color="#097050"/>
</linearGradient>
<linearGradient id="paint12_linear_4753_1358" x1="18.526" y1="21.1631" x2="18.5581" y2="21.1631" gradientUnits="userSpaceOnUse">
<stop stop-color="#4CED95"/>
<stop offset="0.5" stop-color="#10B190"/>
<stop offset="1" stop-color="#097050"/>
</linearGradient>
<linearGradient id="paint13_linear_4753_1358" x1="18.5581" y1="21.376" x2="18.6093" y2="21.376" gradientUnits="userSpaceOnUse">
<stop stop-color="#4CED95"/>
<stop offset="0.5" stop-color="#10B190"/>
<stop offset="1" stop-color="#097050"/>
</linearGradient>
<linearGradient id="paint14_linear_4753_1358" x1="19.0836" y1="16.9108" x2="19.4131" y2="16.9108" gradientUnits="userSpaceOnUse">
<stop stop-color="#4CED95"/>
<stop offset="0.5" stop-color="#10B190"/>
<stop offset="1" stop-color="#097050"/>
</linearGradient>
<linearGradient id="paint15_linear_4753_1358" x1="19.4131" y1="16.4135" x2="19.6663" y2="16.4135" gradientUnits="userSpaceOnUse">
<stop stop-color="#4CED95"/>
<stop offset="0.5" stop-color="#10B190"/>
<stop offset="1" stop-color="#097050"/>
</linearGradient>
<linearGradient id="paint16_linear_4753_1358" x1="19.8025" y1="15.8872" x2="20.0366" y2="15.8872" gradientUnits="userSpaceOnUse">
<stop stop-color="#4CED95"/>
<stop offset="0.5" stop-color="#10B190"/>
<stop offset="1" stop-color="#097050"/>
</linearGradient>
<linearGradient id="paint17_linear_4753_1358" x1="20.0939" y1="15.4664" x2="20.4763" y2="15.4664" gradientUnits="userSpaceOnUse">
<stop stop-color="#4CED95"/>
<stop offset="0.5" stop-color="#10B190"/>
<stop offset="1" stop-color="#097050"/>
</linearGradient>
<linearGradient id="paint18_linear_4753_1358" x1="20.8709" y1="14.89" x2="20.8812" y2="14.89" gradientUnits="userSpaceOnUse">
<stop stop-color="#4CED95"/>
<stop offset="0.5" stop-color="#10B190"/>
<stop offset="1" stop-color="#097050"/>
</linearGradient>
<linearGradient id="paint19_linear_4753_1358" x1="9.7935" y1="6.74777" x2="7.19272" y2="10.6492" gradientUnits="userSpaceOnUse">
<stop stop-color="#DEFFFF" stop-opacity="0"/>
<stop offset="1" stop-color="#DEFFFF"/>
</linearGradient>
<linearGradient id="paint20_linear_4753_1358" x1="22.2265" y1="6.74836" x2="25.1063" y2="11.2797" gradientUnits="userSpaceOnUse">
<stop stop-color="#DEFFFF" stop-opacity="0"/>
<stop offset="1" stop-color="#DEFFFF"/>
</linearGradient>
</defs>
</svg>
